{"asset":{"generator":"3D Builder","version":"2.0"},"scene":0,"scenes":[{"nodes":[0,1,9,13]}],"nodes":[{"mesh":0,"matrix":[39.370079040527344,0,0,0,0,-4.6932791519793682E-6,-39.370075225830078,0,0,39.370075225830078,-4.6932791519793682E-6,0,0.029582835733890533,-0.40449616312980652,-0.25554108619689941,1]},{"children":[2,3,4,5,6,7,8]},{"mesh":1,"matrix":[39.370079040527344,0,0,0,0,-4.6932791519793682E-6,-39.370075225830078,0,0,39.370075225830078,-4.6932791519793682E-6,0,0.029582835733890533,-0.40449616312980652,-0.25554108619689941,1]},{"mesh":2,"matrix":[39.370079040527344,0,0,0,0,-4.6932791519793682E-6,-39.370075225830078,0,0,39.370075225830078,-4.6932791519793682E-6,0,0.029582835733890533,-0.40449616312980652,-0.25554108619689941,1]},{"mesh":3,"matrix":[39.370079040527344,0,0,0,0,-4.6932791519793682E-6,-39.370075225830078,0,0,39.370075225830078,-4.6932791519793682E-6,0,0.029582835733890533,-0.40449616312980652,-0.25554108619689941,1]},{"mesh":4,"matrix":[39.370079040527344,0,0,0,0,-4.6932791519793682E-6,-39.370075225830078,0,0,39.370075225830078,-4.6932791519793682E-6,0,0.029582835733890533,-0.40449616312980652,-0.25554108619689941,1]},{"mesh":5,"matrix":[39.370079040527344,0,0,0,0,-4.6932791519793682E-6,-39.370075225830078,0,0,39.370075225830078,-4.6932791519793682E-6,0,0.029582835733890533,-0.40449616312980652,-0.25554108619689941,1]},{"mesh":6,"matrix":[39.370079040527344,0,0,0,0,-4.6932791519793682E-6,-39.370075225830078,0,0,39.370075225830078,-4.6932791519793682E-6,0,0.029582835733890533,-0.40449616312980652,-0.25554108619689941,1]},{"mesh":7,"matrix":[39.370079040527344,0,0,0,0,-4.6932791519793682E-6,-39.370075225830078,0,0,39.370075225830078,-4.6932791519793682E-6,0,0.029582835733890533,-0.40449616312980652,-0.25554108619689941,1]},{"children":[10,11,12]},{"mesh":8,"matrix":[39.370079040527344,0,0,0,0,-4.6932791519793682E-6,-39.370075225830078,0,0,39.370075225830078,-4.6932791519793682E-6,0,0.029582835733890533,-0.40449616312980652,-0.25554108619689941,1]},{"mesh":9,"matrix":[39.370079040527344,0,0,0,0,-4.6932791519793682E-6,-39.370075225830078,0,0,39.370075225830078,-4.6932791519793682E-6,0,0.029582835733890533,-0.40449616312980652,-0.25554108619689941,1]},{"mesh":10,"matrix":[39.370079040527344,0,0,0,0,-4.6932791519793682E-6,-39.370075225830078,0,0,39.370075225830078,-4.6932791519793682E-6,0,0.029582835733890533,-0.40449616312980652,-0.25554108619689941,1]},{"children":[14,15,16,17,18,19,20,21]},{"mesh":11,"matrix":[39.370079040527344,0,0,0,0,-4.6932791519793682E-6,-39.370075225830078,0,0,39.370075225830078,-4.6932791519793682E-6,0,0.029582835733890533,-0.40449616312980652,-0.25554108619689941,1]},{"mesh":12,"matrix":[39.370079040527344,0,0,0,0,-4.6932791519793682E-6,-39.370075225830078,0,0,39.370075225830078,-4.6932791519793682E-6,0,0.029582835733890533,-0.40449616312980652,-0.25554108619689941,1]},{"mesh":13,"matrix":[39.370079040527344,0,0,0,0,-4.6932791519793682E-6,-39.370075225830078,0,0,39.370075225830078,-4.6932791519793682E-6,0,0.029582835733890533,-0.40449616312980652,-0.25554108619689941,1]},{"mesh":14,"matrix":[39.370079040527344,0,0,0,0,-4.6932791519793682E-6,-39.370075225830078,0,0,39.370075225830078,-4.6932791519793682E-6,0,0.029582835733890533,-0.40449616312980652,-0.25554108619689941,1]},{"mesh":15,"matrix":[39.370079040527344,0,0,0,0,-4.6932791519793682E-6,-39.370075225830078,0,0,39.370075225830078,-4.6932791519793682E-6,0,0.029582835733890533,-0.40449616312980652,-0.25554108619689941,1]},{"mesh":16,"matrix":[39.370079040527344,0,0,0,0,-4.6932791519793682E-6,-39.370075225830078,0,0,39.370075225830078,-4.6932791519793682E-6,0,0.029582835733890533,-0.40449616312980652,-0.25554108619689941,1]},{"mesh":17,"matrix":[39.370079040527344,0,0,0,0,-4.6932791519793682E-6,-39.370075225830078,0,0,39.370075225830078,-4.6932791519793682E-6,0,0.029582835733890533,-0.40449616312980652,-0.25554108619689941,1]},{"mesh":18,"matrix":[39.370079040527344,0,0,0,0,-4.6932791519793682E-6,-39.370075225830078,0,0,39.370075225830078,-4.6932791519793682E-6,0,0.029582835733890533,-0.40449616312980652,-0.25554108619689941,1]}],"meshes":[{"primitives":[{"attributes":{"POSITION":0,"TEXCOORD_0":1},"mode":4,"indices":2,"material":0}]},{"primitives":[{"attributes":{"POSITION":3,"TEXCOORD_0":4},"mode":4,"indices":5,"material":0}]},{"primitives":[{"attributes":{"POSITION":6,"TEXCOORD_0":7},"mode":4,"indices":8,"material":0}]},{"primitives":[{"attributes":{"POSITION":9,"TEXCOORD_0":10},"mode":4,"indices":11,"material":0}]},{"primitives":[{"attributes":{"POSITION":12,"TEXCOORD_0":13},"mode":4,"indices":14,"material":0}]},{"primitives":[{"attributes":{"POSITION":15,"TEXCOORD_0":16},"mode":4,"indices":17,"material":0}]},{"primitives":[{"attributes":{"POSITION":18,"TEXCOORD_0":19},"mode":4,"indices":20,"material":0}]},{"primitives":[{"attributes":{"POSITION":21,"TEXCOORD_0":22},"mode":4,"indices":23,"material":0}]},{"primitives":[{"attributes":{"POSITION":24,"TEXCOORD_0":25},"mode":4,"indices":26,"material":0}]},{"primitives":[{"attributes":{"POSITION":27,"TEXCOORD_0":28},"mode":4,"indices":29,"material":0}]},{"primitives":[{"attributes":{"POSITION":30,"TEXCOORD_0":31},"mode":4,"indices":32,"material":0}]},{"primitives":[{"attributes":{"POSITION":33,"TEXCOORD_0":34},"mode":4,"indices":35,"material":0}]},{"primitives":[{"attributes":{"POSITION":36,"TEXCOORD_0":37},"mode":4,"indices":38,"material":0}]},{"primitives":[{"attributes":{"POSITION":39,"TEXCOORD_0":40},"mode":4,"indices":41,"material":0}]},{"primitives":[{"attributes":{"POSITION":42,"TEXCOORD_0":43},"mode":4,"indices":44,"material":0}]},{"primitives":[{"attributes":{"POSITION":45,"TEXCOORD_0":46},"mode":4,"indices":47,"material":0}]},{"primitives":[{"attributes":{"POSITION":48,"TEXCOORD_0":49},"mode":4,"indices":50,"material":0}]},{"primitives":[{"attributes":{"POSITION":51,"TEXCOORD_0":52},"mode":4,"indices":53,"material":0}]},{"primitives":[{"attributes":{"POSITION":54,"TEXCOORD_0":55},"mode":4,"indices":56,"material":0}]}],"materials":[{"pbrMetallicRoughness":{"baseColorFactor":[1,1,1,1],"metallicFactor":0,"roughnessFactor":1,"baseColorTexture":{"index":0,"texCoord":0}},"alphaMode":"OPAQUE"}],"textures":[{"source":0,"sampler":0}],"images":[{"uri":"brick-heap-x_u1_v1_baseColor.jpeg"}],"samplers":[{"magFilter":9729,"wrapS":10497,"wrapT":10497}],"accessors":[{"bufferView":0,"byteOffset":0,"count":72766,"componentType":5126,"type":"VEC3","min":[-0.029831094667315483,-0.040417946875095367,0.010449914261698723],"max":[0.03302740678191185,0.027597833424806595,0.032452065497636795]},{"bufferView":1,"byteOffset":0,"count":72766,"componentType":5126,"type":"VEC2"},{"bufferView":2,"byteOffset":0,"count":293382,"componentType":5125,"type":"SCALAR"},{"bufferView":3,"byteOffset":0,"count":48971,"componentType":5126,"type":"VEC3","min":[-0.032962825149297714,-0.017043851315975189,0.01055124681442976],"max":[0.01606040820479393,0.033391572535037994,0.025412887334823608]},{"bufferView":4,"byteOffset":0,"count":48971,"componentType":5126,"type":"VEC2"},{"bufferView":5,"byteOffset":0,"count":190710,"componentType":5125,"type":"SCALAR"},{"bufferView":6,"byteOffset":0,"count":25547,"componentType":5126,"type":"VEC3","min":[-0.017361467704176903,-0.050667468458414078,0.010786612518131733],"max":[0.0081252334639430046,-0.02080969512462616,0.0251102726906538]},{"bufferView":7,"byteOffset":0,"count":25547,"componentType":5126,"type":"VEC2"},{"bufferView":8,"byteOffset":0,"count":103008,"componentType":5125,"type":"SCALAR"},{"bufferView":9,"byteOffset":0,"count":1299,"componentType":5126,"type":"VEC3","min":[-0.020353969186544418,-0.0434383898973465,0.01125734206289053],"max":[-0.013024019077420235,-0.035704959183931351,0.019864989444613457]},{"bufferView":10,"byteOffset":0,"count":1299,"componentType":5126,"type":"VEC2"},{"bufferView":11,"byteOffset":0,"count":4926,"componentType":5125,"type":"SCALAR"},{"bufferView":12,"byteOffset":0,"count":483,"componentType":5126,"type":"VEC3","min":[-0.0048871049657464027,-0.0057799373753368855,0.022622125223279],"max":[-0.0019282252760604024,-0.0012407491449266672,0.025345638394355774]},{"bufferView":13,"byteOffset":0,"count":483,"componentType":5126,"type":"VEC2"},{"bufferView":14,"byteOffset":0,"count":1488,"componentType":5125,"type":"SCALAR"},{"bufferView":15,"byteOffset":0,"count":3205,"componentType":5126,"type":"VEC3","min":[0.010277146473526955,0.0002050686307484284,0.011728073470294476],"max":[0.021137578412890434,0.0089472066611051559,0.018654538318514824]},{"bufferView":16,"byteOffset":0,"count":3205,"componentType":5126,"type":"VEC2"},{"bufferView":17,"byteOffset":0,"count":11514,"componentType":5125,"type":"SCALAR"},{"bufferView":18,"byteOffset":0,"count":3254,"componentType":5126,"type":"VEC3","min":[-0.00048241059994325042,-0.010823478922247887,0.020167602226138115],"max":[0.0086968373507261276,0.0021552401594817638,0.025278391316533089]},{"bufferView":19,"byteOffset":0,"count":3254,"componentType":5126,"type":"VEC2"},{"bufferView":20,"byteOffset":0,"count":12012,"componentType":5125,"type":"SCALAR"},{"bufferView":21,"byteOffset":0,"count":1395,"componentType":5126,"type":"VEC3","min":[0.015421560034155846,-0.031434755772352219,0.011660825461149216],"max":[0.020128870382905006,-0.02262536808848381,0.016267262399196625]},{"bufferView":22,"byteOffset":0,"count":1395,"componentType":5126,"type":"VEC2"},{"bufferView":23,"byteOffset":0,"count":5736,"componentType":5125,"type":"SCALAR"},{"bufferView":24,"byteOffset":0,"count":26037,"componentType":5126,"type":"VEC3","min":[-0.025014268234372139,-0.0027967162895947695,0.010832769796252251],"max":[0.00087692984379827976,0.03150583803653717,0.024468362331390381]},{"bufferView":25,"byteOffset":0,"count":26037,"componentType":5126,"type":"VEC2"},{"bufferView":26,"byteOffset":0,"count":98514,"componentType":5125,"type":"SCALAR"},{"bufferView":27,"byteOffset":0,"count":46719,"componentType":5126,"type":"VEC3","min":[-0.0345427542924881,-0.048434879630804062,0.01027420349419117],"max":[-0.00812584813684225,-0.00039816185017116368,0.024895502254366875]},{"bufferView":28,"byteOffset":0,"count":46719,"componentType":5126,"type":"VEC2"},{"bufferView":29,"byteOffset":0,"count":182484,"componentType":5125,"type":"SCALAR"},{"bufferView":30,"byteOffset":0,"count":2376,"componentType":5126,"type":"VEC3","min":[-0.027511389926075935,-0.00016816439165268093,0.013855599798262119],"max":[-0.019330034032464027,0.00686319824308157,0.019638406112790108]},{"bufferView":31,"byteOffset":0,"count":2376,"componentType":5126,"type":"VEC2"},{"bufferView":32,"byteOffset":0,"count":8892,"componentType":5125,"type":"SCALAR"},{"bufferView":33,"byteOffset":0,"count":4997,"componentType":5126,"type":"VEC3","min":[-0.012037287466228008,0.0041098902001976967,0.017909066751599312],"max":[-0.0028477518353611231,0.013765759766101837,0.025507578626275063]},{"bufferView":34,"byteOffset":0,"count":4997,"componentType":5126,"type":"VEC2"},{"bufferView":35,"byteOffset":0,"count":17856,"componentType":5125,"type":"SCALAR"},{"bufferView":36,"byteOffset":0,"count":7732,"componentType":5126,"type":"VEC3","min":[-0.016069710254669189,0.02366851270198822,0.011160930618643761],"max":[0.006094898097217083,0.037685979157686234,0.017525026574730873]},{"bufferView":37,"byteOffset":0,"count":7732,"componentType":5126,"type":"VEC2"},{"bufferView":38,"byteOffset":0,"count":29730,"componentType":5125,"type":"SCALAR"},{"bufferView":39,"byteOffset":0,"count":9240,"componentType":5126,"type":"VEC3","min":[0.0025836722925305367,0.015384213998913765,0.011627265252172947],"max":[0.019728329032659531,0.029840586706995964,0.017936497926712036]},{"bufferView":40,"byteOffset":0,"count":9240,"componentType":5126,"type":"VEC2"},{"bufferView":41,"byteOffset":0,"count":34596,"componentType":5125,"type":"SCALAR"},{"bufferView":42,"byteOffset":0,"count":2199,"componentType":5126,"type":"VEC3","min":[-0.017386419698596,0.018621126189827919,0.016208317130804062],"max":[-0.01286022923886776,0.026329366490244865,0.021091114729642868]},{"bufferView":43,"byteOffset":0,"count":2199,"componentType":5126,"type":"VEC2"},{"bufferView":44,"byteOffset":0,"count":8046,"componentType":5125,"type":"SCALAR"},{"bufferView":45,"byteOffset":0,"count":9811,"componentType":5126,"type":"VEC3","min":[-0.033461246639490128,0.005755777470767498,0.010584870353341103],"max":[-0.021254252642393112,0.028112404048442841,0.020213307812809944]},{"bufferView":46,"byteOffset":0,"count":9811,"componentType":5126,"type":"VEC2"},{"bufferView":47,"byteOffset":0,"count":37284,"componentType":5125,"type":"SCALAR"},{"bufferView":48,"byteOffset":0,"count":3708,"componentType":5126,"type":"VEC3","min":[-0.024408869445323944,0.017743321135640144,0.010831753723323345],"max":[-0.014560981653630733,0.0327208936214447,0.01593400165438652]},{"bufferView":49,"byteOffset":0,"count":3708,"componentType":5126,"type":"VEC2"},{"bufferView":50,"byteOffset":0,"count":11856,"componentType":5125,"type":"SCALAR"},{"bufferView":51,"byteOffset":0,"count":5808,"componentType":5126,"type":"VEC3","min":[0.0079876696690917015,-0.017999855801463127,0.0115449707955122],"max":[0.018960248678922653,-0.00458587845787406,0.021337999030947685]},{"bufferView":52,"byteOffset":0,"count":5808,"componentType":5126,"type":"VEC2"},{"bufferView":53,"byteOffset":0,"count":21786,"componentType":5125,"type":"SCALAR"},{"bufferView":54,"byteOffset":0,"count":3330,"componentType":5126,"type":"VEC3","min":[-0.0018602183554321527,-0.0020073205232620239,0.018978893756866455],"max":[0.0094415387138724327,0.0070724878460168839,0.025562440976500511]},{"bufferView":55,"byteOffset":0,"count":3330,"componentType":5126,"type":"VEC2"},{"bufferView":56,"byteOffset":0,"count":11916,"componentType":5125,"type":"SCALAR"}],"bufferViews":[{"buffer":0,"byteOffset":0,"byteLength":873192,"byteStride":12,"target":34962},{"buffer":0,"byteOffset":873192,"byteLength":582128,"byteStride":8,"target":34962},{"buffer":0,"byteOffset":1455320,"byteLength":1173528,"target":34963},{"buffer":0,"byteOffset":2628848,"byteLength":587652,"byteStride":12,"target":34962},{"buffer":0,"byteOffset":3216500,"byteLength":391768,"byteStride":8,"target":34962},{"buffer":0,"byteOffset":3608268,"byteLength":762840,"target":34963},{"buffer":0,"byteOffset":4371108,"byteLength":306564,"byteStride":12,"target":34962},{"buffer":0,"byteOffset":4677672,"byteLength":204376,"byteStride":8,"target":34962},{"buffer":0,"byteOffset":4882048,"byteLength":412032,"target":34963},{"buffer":0,"byteOffset":5294080,"byteLength":15588,"byteStride":12,"target":34962},{"buffer":0,"byteOffset":5309668,"byteLength":10392,"byteStride":8,"target":34962},{"buffer":0,"byteOffset":5320060,"byteLength":19704,"target":34963},{"buffer":0,"byteOffset":5339764,"byteLength":5796,"byteStride":12,"target":34962},{"buffer":0,"byteOffset":5345560,"byteLength":3864,"byteStride":8,"target":34962},{"buffer":0,"byteOffset":5349424,"byteLength":5952,"target":34963},{"buffer":0,"byteOffset":5355376,"byteLength":38460,"byteStride":12,"target":34962},{"buffer":0,"byteOffset":5393836,"byteLength":25640,"byteStride":8,"target":34962},{"buffer":0,"byteOffset":5419476,"byteLength":46056,"target":34963},{"buffer":0,"byteOffset":5465532,"byteLength":39048,"byteStride":12,"target":34962},{"buffer":0,"byteOffset":5504580,"byteLength":26032,"byteStride":8,"target":34962},{"buffer":0,"byteOffset":5530612,"byteLength":48048,"target":34963},{"buffer":0,"byteOffset":5578660,"byteLength":16740,"byteStride":12,"target":34962},{"buffer":0,"byteOffset":5595400,"byteLength":11160,"byteStride":8,"target":34962},{"buffer":0,"byteOffset":5606560,"byteLength":22944,"target":34963},{"buffer":0,"byteOffset":5629504,"byteLength":312444,"byteStride":12,"target":34962},{"buffer":0,"byteOffset":5941948,"byteLength":208296,"byteStride":8,"target":34962},{"buffer":0,"byteOffset":6150244,"byteLength":394056,"target":34963},{"buffer":0,"byteOffset":6544300,"byteLength":560628,"byteStride":12,"target":34962},{"buffer":0,"byteOffset":7104928,"byteLength":373752,"byteStride":8,"target":34962},{"buffer":0,"byteOffset":7478680,"byteLength":729936,"target":34963},{"buffer":0,"byteOffset":8208616,"byteLength":28512,"byteStride":12,"target":34962},{"buffer":0,"byteOffset":8237128,"byteLength":19008,"byteStride":8,"target":34962},{"buffer":0,"byteOffset":8256136,"byteLength":35568,"target":34963},{"buffer":0,"byteOffset":8291704,"byteLength":59964,"byteStride":12,"target":34962},{"buffer":0,"byteOffset":8351668,"byteLength":39976,"byteStride":8,"target":34962},{"buffer":0,"byteOffset":8391644,"byteLength":71424,"target":34963},{"buffer":0,"byteOffset":8463068,"byteLength":92784,"byteStride":12,"target":34962},{"buffer":0,"byteOffset":8555852,"byteLength":61856,"byteStride":8,"target":34962},{"buffer":0,"byteOffset":8617708,"byteLength":118920,"target":34963},{"buffer":0,"byteOffset":8736628,"byteLength":110880,"byteStride":12,"target":34962},{"buffer":0,"byteOffset":8847508,"byteLength":73920,"byteStride":8,"target":34962},{"buffer":0,"byteOffset":8921428,"byteLength":138384,"target":34963},{"buffer":0,"byteOffset":9059812,"byteLength":26388,"byteStride":12,"target":34962},{"buffer":0,"byteOffset":9086200,"byteLength":17592,"byteStride":8,"target":34962},{"buffer":0,"byteOffset":9103792,"byteLength":32184,"target":34963},{"buffer":0,"byteOffset":9135976,"byteLength":117732,"byteStride":12,"target":34962},{"buffer":0,"byteOffset":9253708,"byteLength":78488,"byteStride":8,"target":34962},{"buffer":0,"byteOffset":9332196,"byteLength":149136,"target":34963},{"buffer":0,"byteOffset":9481332,"byteLength":44496,"byteStride":12,"target":34962},{"buffer":0,"byteOffset":9525828,"byteLength":29664,"byteStride":8,"target":34962},{"buffer":0,"byteOffset":9555492,"byteLength":47424,"target":34963},{"buffer":0,"byteOffset":9602916,"byteLength":69696,"byteStride":12,"target":34962},{"buffer":0,"byteOffset":9672612,"byteLength":46464,"byteStride":8,"target":34962},{"buffer":0,"byteOffset":9719076,"byteLength":87144,"target":34963},{"buffer":0,"byteOffset":9806220,"byteLength":39960,"byteStride":12,"target":34962},{"buffer":0,"byteOffset":9846180,"byteLength":26640,"byteStride":8,"target":34962},{"buffer":0,"byteOffset":9872820,"byteLength":47664,"target":34963}],"buffers":[{"byteLength":9920484,"uri":"scene.bin"}]}