{
  "accessors": [
    {
      "bufferView": 2,
      "componentType": 5126,
      "count": 8738,
      "max": [
        1.4360382556915283,
        1.1689636707305908,
        2.169074058532715
      ],
      "min": [
        -1.4360382556915283,
        -0.3011523187160492,
        -1.5327048301696777
      ],
      "type": "VEC3"
    },
    {
      "bufferView": 2,
      "byteOffset": 104856,
      "componentType": 5126,
      "count": 8738,
      "max": [
        1.0,
        1.0,
        0.9999996423721313
      ],
      "min": [
        -0.9999841451644897,
        -0.9999921321868896,
        -1.0
      ],
      "type": "VEC3"
    },
    {
      "bufferView": 1,
      "componentType": 5126,
      "count": 8738,
      "max": [
        0.9927982091903687,
        0.9964538812637329
      ],
      "min": [
        0.0035463571548461914,
        0.003546342719346285
      ],
      "type": "VEC2"
    },
    {
      "bufferView": 0,
      "componentType": 5125,
      "count": 41664,
      "type": "SCALAR"
    },
    {
      "bufferView": 2,
      "byteOffset": 209712,
      "componentType": 5126,
      "count": 983,
      "max": [
        2.3979310989379883,
        1.6657015085220337,
        -0.8202881813049316
      ],
      "min": [
        -2.3979310989379883,
        0.4191593825817108,
        -2.474400281906128
      ],
      "type": "VEC3"
    },
    {
      "bufferView": 2,
      "byteOffset": 221508,
      "componentType": 5126,
      "count": 983,
      "max": [
        0.9973472952842712,
        0.9993928670883179,
        0.9767114520072937
      ],
      "min": [
        -0.9973472952842712,
        -0.9991927146911621,
        -0.9561202526092529
      ],
      "type": "VEC3"
    },
    {
      "bufferView": 1,
      "byteOffset": 69904,
      "componentType": 5126,
      "count": 983,
      "max": [
        0.9836292862892151,
        0.982230544090271
      ],
      "min": [
        0.12902452051639557,
        0.0035463576205074787
      ],
      "type": "VEC2"
    },
    {
      "bufferView": 0,
      "byteOffset": 166656,
      "componentType": 5125,
      "count": 4032,
      "type": "SCALAR"
    }
  ],
  "asset": {
    "extras": {
      "author": "USBEN (https://sketchfab.com/usben)",
      "license": "CC-BY-NC-4.0 (http://creativecommons.org/licenses/by-nc/4.0/)",
      "source": "https://sketchfab.com/3d-models/bull-skull-94696bad0e53420486067aba24aac144",
      "title": "Bull Skull"
    },
    "generator": "Sketchfab-11.36.1",
    "version": "2.0"
  },
  "bufferViews": [
    {
      "buffer": 0,
      "byteLength": 182784,
      "name": "floatBufferViews",
      "target": 34963
    },
    {
      "buffer": 0,
      "byteLength": 77768,
      "byteOffset": 182784,
      "byteStride": 8,
      "name": "floatBufferViews",
      "target": 34962
    },
    {
      "buffer": 0,
      "byteLength": 233304,
      "byteOffset": 260552,
      "byteStride": 12,
      "name": "floatBufferViews",
      "target": 34962
    }
  ],
  "buffers": [
    {
      "byteLength": 493856,
      "uri": "scene.bin"
    }
  ],
  "materials": [
    {
      "doubleSided": true,
      "name": "Bone",
      "pbrMetallicRoughness": {
        "metallicFactor": 0.0,
        "roughnessFactor": 0.457576
      }
    },
    {
      "doubleSided": true,
      "name": "Horns",
      "pbrMetallicRoughness": {
        "metallicFactor": 0.0,
        "roughnessFactor": 0.39697
      }
    }
  ],
  "meshes": [
    {
      "name": "Object_0",
      "primitives": [
        {
          "attributes": {
            "NORMAL": 1,
            "POSITION": 0,
            "TEXCOORD_0": 2
          },
          "indices": 3,
          "material": 0,
          "mode": 4
        }
      ]
    },
    {
      "name": "Object_1",
      "primitives": [
        {
          "attributes": {
            "NORMAL": 5,
            "POSITION": 4,
            "TEXCOORD_0": 6
          },
          "indices": 7,
          "material": 1,
          "mode": 4
        }
      ]
    }
  ],
  "nodes": [
    {
      "children": [
        1
      ],
      "matrix": [
        1.0,
        0.0,
        0.0,
        0.0,
        0.0,
        2.220446049250313e-16,
        -1.0,
        0.0,
        0.0,
        1.0,
        2.220446049250313e-16,
        0.0,
        0.0,
        0.0,
        0.0,
        1.0
      ],
      "name": "Sketchfab_model"
    },
    {
      "children": [
        2
      ],
      "name": "root"
    },
    {
      "children": [
        3
      ],
      "matrix": [
        1.0,
        0.0,
        0.0,
        0.0,
        0.0,
        2.220446049250313e-16,
        1.0,
        0.0,
        0.0,
        -1.0,
        2.220446049250313e-16,
        0.0,
        0.0,
        0.0,
        0.0,
        1.0
      ],
      "name": "GLTF_SceneRootNode"
    },
    {
      "children": [
        4,
        5
      ],
      "name": "Bull Skull_0"
    },
    {
      "mesh": 0,
      "name": "Object_4"
    },
    {
      "mesh": 1,
      "name": "Object_5"
    }
  ],
  "scene": 0,
  "scenes": [
    {
      "name": "Sketchfab_Scene",
      "nodes": [
        0
      ]
    }
  ]
}
